<svg width="1600" height="600" viewBox="0 0 1600 600" fill="none" xmlns="http://www.w3.org/2000/svg">
<rect width="1600" height="600" fill="#2F303A"/>
<path d="M522.027 226.438V232.26H508.514V226.438H522.027ZM498.545 234.43H506.065C506.108 235.604 506.337 236.578 506.752 237.352C507.182 238.125 507.79 238.705 508.578 239.092C509.38 239.479 510.354 239.672 511.5 239.672C512.531 239.672 513.405 239.493 514.121 239.135C514.852 238.762 515.446 238.197 515.904 237.438C516.363 236.678 516.699 235.704 516.914 234.516C517.129 233.327 517.236 231.902 517.236 230.24V228.521C517.236 227.189 517.158 226.008 517 224.977C516.857 223.945 516.628 223.064 516.313 222.334C516.012 221.589 515.632 220.98 515.174 220.508C514.73 220.035 514.207 219.684 513.606 219.455C513.004 219.226 512.331 219.111 511.586 219.111C510.254 219.111 509.187 219.319 508.385 219.734C507.583 220.15 506.996 220.766 506.623 221.582C506.265 222.384 506.065 223.372 506.022 224.547H498.502C498.703 222.384 499.318 220.458 500.35 218.768C501.381 217.063 502.828 215.724 504.69 214.75C506.566 213.776 508.865 213.289 511.586 213.289C513.577 213.289 515.382 213.64 517 214.342C518.619 215.044 520.001 216.061 521.147 217.393C522.307 218.725 523.195 220.329 523.811 222.205C524.427 224.081 524.734 226.201 524.734 228.564V230.24C524.734 232.589 524.434 234.702 523.832 236.578C523.245 238.454 522.378 240.051 521.233 241.369C520.101 242.687 518.719 243.697 517.086 244.398C515.453 245.1 513.591 245.451 511.5 245.451C508.936 245.451 506.702 244.993 504.797 244.076C502.906 243.145 501.417 241.849 500.328 240.188C499.254 238.526 498.66 236.607 498.545 234.43ZM543.445 216.383H551.265C553.156 216.383 554.896 216.691 556.486 217.307C558.076 217.923 559.458 218.803 560.632 219.949C561.807 221.095 562.716 222.477 563.361 224.096C564.005 225.714 564.328 227.533 564.328 229.553C564.328 231.501 564.005 233.262 563.361 234.838C562.716 236.413 561.807 237.76 560.632 238.877C559.458 239.994 558.076 240.854 556.486 241.455C554.896 242.042 553.156 242.336 551.265 242.336H543.445C541.54 242.336 539.785 242.042 538.181 241.455C536.577 240.854 535.18 240.001 533.992 238.898C532.817 237.781 531.901 236.442 531.242 234.881C530.597 233.305 530.275 231.544 530.275 229.596C530.275 227.576 530.597 225.757 531.242 224.139C531.901 222.52 532.817 221.131 533.992 219.971C535.18 218.811 536.577 217.923 538.181 217.307C539.785 216.691 541.54 216.383 543.445 216.383ZM543.445 222.441C542.299 222.441 541.268 222.699 540.351 223.215C539.434 223.73 538.711 224.518 538.181 225.578C537.651 226.624 537.386 227.963 537.386 229.596C537.386 230.727 537.544 231.715 537.859 232.561C538.174 233.406 538.611 234.1 539.169 234.645C539.728 235.189 540.373 235.597 541.103 235.869C541.833 236.141 542.614 236.277 543.445 236.277H551.308C552.425 236.277 553.428 236.034 554.316 235.547C555.204 235.046 555.906 234.294 556.421 233.291C556.951 232.288 557.216 231.042 557.216 229.553C557.216 228.335 557.066 227.283 556.765 226.395C556.464 225.507 556.042 224.769 555.498 224.182C554.968 223.594 554.345 223.158 553.628 222.871C552.912 222.585 552.139 222.441 551.308 222.441H543.445ZM550.964 212.43V246.289H543.724V212.43H550.964ZM582.952 216.383H590.772C592.663 216.383 594.403 216.691 595.993 217.307C597.583 217.923 598.965 218.803 600.139 219.949C601.314 221.095 602.223 222.477 602.868 224.096C603.513 225.714 603.835 227.533 603.835 229.553C603.835 231.501 603.513 233.262 602.868 234.838C602.223 236.413 601.314 237.76 600.139 238.877C598.965 239.994 597.583 240.854 595.993 241.455C594.403 242.042 592.663 242.336 590.772 242.336H582.952C581.047 242.336 579.292 242.042 577.688 241.455C576.084 240.854 574.688 240.001 573.499 238.898C572.324 237.781 571.408 236.442 570.749 234.881C570.104 233.305 569.782 231.544 569.782 229.596C569.782 227.576 570.104 225.757 570.749 224.139C571.408 222.52 572.324 221.131 573.499 219.971C574.688 218.811 576.084 217.923 577.688 217.307C579.292 216.691 581.047 216.383 582.952 216.383ZM582.952 222.441C581.806 222.441 580.775 222.699 579.858 223.215C578.942 223.73 578.218 224.518 577.688 225.578C577.158 226.624 576.893 227.963 576.893 229.596C576.893 230.727 577.051 231.715 577.366 232.561C577.681 233.406 578.118 234.1 578.677 234.645C579.235 235.189 579.88 235.597 580.61 235.869C581.341 236.141 582.121 236.277 582.952 236.277H590.815C591.932 236.277 592.935 236.034 593.823 235.547C594.711 235.046 595.413 234.294 595.929 233.291C596.458 232.288 596.723 231.042 596.723 229.553C596.723 228.335 596.573 227.283 596.272 226.395C595.971 225.507 595.549 224.769 595.005 224.182C594.475 223.594 593.852 223.158 593.136 222.871C592.419 222.585 591.646 222.441 590.815 222.441H582.952ZM590.471 212.43V246.289H583.231V212.43H590.471ZM631.762 239.199V245H615.09V239.199H631.762ZM617.776 213.719V245H610.235V213.719H617.776ZM629.613 226.137V231.744H615.09V226.137H629.613ZM631.826 213.719V219.541H615.09V213.719H631.826ZM644.972 213.719V245H637.453V213.719H644.972ZM663.019 213.719L651.783 232.625H643.662L642.759 225.814H647.894L653.91 213.719H663.019ZM655.199 245L647.873 231.314L653.351 226.266L664.093 245H655.199ZM683.77 213.719V245H676.229V213.719H683.77ZM693.181 213.719V219.541H667.034V213.719H693.181ZM706.133 233.463L717.369 213.719H724.91V245H717.369V225.277L706.133 245H698.592V213.719H706.133V233.463ZM744.931 231.701H736.875L736.832 226.76H743.363C744.537 226.76 745.476 226.631 746.177 226.373C746.879 226.101 747.388 225.707 747.703 225.191C748.032 224.676 748.197 224.031 748.197 223.258C748.197 222.37 748.032 221.654 747.703 221.109C747.373 220.565 746.851 220.171 746.134 219.928C745.433 219.67 744.523 219.541 743.406 219.541H739.711V245H732.17V213.719H743.406C745.339 213.719 747.065 213.898 748.584 214.256C750.102 214.6 751.391 215.13 752.451 215.846C753.525 216.562 754.341 217.464 754.9 218.553C755.459 219.627 755.738 220.895 755.738 222.355C755.738 223.63 755.466 224.826 754.922 225.943C754.377 227.061 753.468 227.97 752.193 228.672C750.933 229.359 749.207 229.717 747.015 229.746L744.931 231.701ZM744.63 245H735.048L737.627 239.199H744.63C745.662 239.199 746.485 239.042 747.101 238.727C747.731 238.397 748.183 237.967 748.455 237.438C748.741 236.893 748.884 236.292 748.884 235.633C748.884 234.831 748.748 234.136 748.476 233.549C748.218 232.962 747.803 232.51 747.23 232.195C746.657 231.866 745.891 231.701 744.931 231.701H738.593L738.636 226.76H746.22L747.982 228.736C750.073 228.65 751.727 228.944 752.945 229.617C754.177 230.29 755.058 231.178 755.588 232.281C756.117 233.384 756.382 234.537 756.382 235.74C756.382 237.788 755.938 239.5 755.05 240.875C754.177 242.25 752.866 243.281 751.119 243.969C749.371 244.656 747.209 245 744.63 245ZM784.288 226.137V231.938H768.239V226.137H784.288ZM770.753 213.719V245H763.212V213.719H770.753ZM789.358 213.719V245H781.839V213.719H789.358ZM801.473 224.482H808.198C810.733 224.482 812.938 224.905 814.815 225.75C816.691 226.595 818.138 227.777 819.155 229.295C820.186 230.813 820.702 232.589 820.702 234.623C820.702 236.156 820.408 237.559 819.821 238.834C819.233 240.094 818.388 241.19 817.285 242.121C816.197 243.038 814.886 243.747 813.354 244.248C811.821 244.749 810.103 245 808.198 245H796.768V213.719H804.33V239.199H808.198C809.272 239.199 810.174 238.992 810.905 238.576C811.649 238.161 812.215 237.609 812.602 236.922C812.989 236.22 813.182 235.439 813.182 234.58C813.182 233.749 812.989 233.012 812.602 232.367C812.215 231.723 811.649 231.214 810.905 230.842C810.174 230.469 809.272 230.283 808.198 230.283H801.473V224.482ZM830.498 213.719V245H822.979V213.719H830.498ZM859.328 239.199V245H842.656V239.199H859.328ZM845.341 213.719V245H837.8V213.719H845.341ZM857.179 226.137V231.744H842.656V226.137H857.179ZM859.392 213.719V219.541H842.656V213.719H859.392ZM891.141 234.387H883.364V228.564H891.141C892.201 228.564 893.06 228.385 893.719 228.027C894.378 227.669 894.858 227.175 895.159 226.545C895.474 225.9 895.631 225.177 895.631 224.375C895.631 223.516 895.474 222.721 895.159 221.99C894.858 221.26 894.378 220.673 893.719 220.229C893.06 219.77 892.201 219.541 891.141 219.541H886.2V245H878.659V213.719H891.141C893.648 213.719 895.803 214.177 897.608 215.094C899.427 216.01 900.823 217.271 901.797 218.875C902.771 220.465 903.258 222.284 903.258 224.332C903.258 226.352 902.771 228.113 901.797 229.617C900.823 231.121 899.427 232.296 897.608 233.141C895.803 233.971 893.648 234.387 891.141 234.387ZM931.486 239.199V245H914.814V239.199H931.486ZM917.5 213.719V245H909.959V213.719H917.5ZM929.338 226.137V231.744H914.814V226.137H929.338ZM931.551 213.719V219.541H914.814V213.719H931.551ZM937.048 213.719H944.61V239.199H952.388V213.719H959.929V239.199H967.599V213.719H975.118V245H937.048V213.719ZM1003.93 239.199V245H987.254V239.199H1003.93ZM989.94 213.719V245H982.399V213.719H989.94ZM1001.78 226.137V231.744H987.254V226.137H1001.78ZM1003.99 213.719V219.541H987.254V213.719H1003.99ZM1030.74 226.137V231.938H1014.69V226.137H1030.74ZM1017.2 213.719V245H1009.66V213.719H1017.2ZM1035.81 213.719V245H1028.29V213.719H1035.81ZM1050.35 233.463L1061.59 213.719H1069.13V245H1061.59V225.277L1050.35 245H1042.81V213.719H1050.35V233.463ZM1092.67 234.021H1084.31L1082.08 233.098C1079.53 232.296 1077.59 231.107 1076.26 229.531C1074.92 227.941 1074.26 225.915 1074.26 223.451C1074.26 221.303 1074.74 219.512 1075.7 218.08C1076.66 216.633 1078.02 215.545 1079.78 214.814C1081.54 214.084 1083.63 213.719 1086.05 213.719H1097.4V245H1089.83V219.541H1086.05C1084.55 219.541 1083.46 219.935 1082.79 220.723C1082.11 221.496 1081.78 222.628 1081.78 224.117C1081.78 225.263 1081.94 226.165 1082.25 226.824C1082.58 227.483 1083.06 227.956 1083.69 228.242C1084.32 228.514 1085.11 228.65 1086.05 228.65H1092.63L1092.67 234.021ZM1086.87 231.207L1080.23 245H1072.02L1078.58 231.207H1086.87ZM559.73 299.199V305H537.751V299.199H559.73ZM540.244 299.199V312.67H533.261L532.746 299.199H540.244ZM564.865 299.199L564.07 312.691H557.302V299.199H564.865ZM556.443 273.719V279.541H540.738V273.719H556.443ZM561.513 273.719V305H554.015V273.719H561.513ZM540.244 273.719H547.763L546.839 286.545C546.682 288.736 546.431 290.641 546.087 292.26C545.744 293.878 545.335 295.275 544.863 296.449C544.39 297.624 543.874 298.633 543.316 299.479C542.757 300.324 542.17 301.061 541.554 301.691C540.953 302.322 540.351 302.895 539.749 303.41C539.148 303.926 538.568 304.456 538.009 305H533.433V299.199H534.937C535.381 298.884 535.825 298.462 536.269 297.932C536.727 297.387 537.157 296.65 537.558 295.719C537.959 294.788 538.31 293.577 538.611 292.088C538.912 290.598 539.141 288.751 539.298 286.545L540.244 273.719ZM591.675 273.719V279.541H575.518V273.719H591.675ZM596.766 273.719V305H589.225V273.719H596.766ZM575.003 273.719H582.501L581.684 289.617C581.555 292.023 581.312 294.1 580.954 295.848C580.596 297.581 580.116 299.042 579.514 300.23C578.913 301.405 578.19 302.343 577.345 303.045C576.499 303.747 575.518 304.248 574.401 304.549C573.298 304.85 572.059 305 570.684 305H568.858V299.199L569.675 299.113C570.333 299.042 570.914 298.863 571.415 298.576C571.916 298.275 572.346 297.831 572.704 297.244C573.076 296.657 573.384 295.905 573.628 294.988C573.871 294.072 574.065 292.962 574.208 291.658C574.365 290.34 574.473 288.801 574.53 287.039L575.003 273.719ZM620.397 294.021H612.039L609.805 293.098C607.255 292.296 605.315 291.107 603.983 289.531C602.651 287.941 601.985 285.915 601.985 283.451C601.985 281.303 602.464 279.512 603.424 278.08C604.384 276.633 605.744 275.545 607.506 274.814C609.268 274.084 611.359 273.719 613.779 273.719H625.123V305H617.561V279.541H613.779C612.276 279.541 611.187 279.935 610.514 280.723C609.841 281.496 609.504 282.628 609.504 284.117C609.504 285.263 609.662 286.165 609.977 286.824C610.306 287.483 610.786 287.956 611.416 288.242C612.046 288.514 612.834 288.65 613.779 288.65H620.354L620.397 294.021ZM614.596 291.207L607.957 305H599.75L606.303 291.207H614.596ZM658.29 291.701H650.233L650.19 286.76H656.722C657.896 286.76 658.834 286.631 659.536 286.373C660.238 286.101 660.746 285.707 661.061 285.191C661.391 284.676 661.556 284.031 661.556 283.258C661.556 282.37 661.391 281.654 661.061 281.109C660.732 280.565 660.209 280.171 659.493 279.928C658.791 279.67 657.882 279.541 656.765 279.541H653.069V305H645.528V273.719H656.765C658.698 273.719 660.424 273.898 661.942 274.256C663.46 274.6 664.75 275.13 665.809 275.846C666.884 276.562 667.7 277.464 668.259 278.553C668.817 279.627 669.097 280.895 669.097 282.355C669.097 283.63 668.824 284.826 668.28 285.943C667.736 287.061 666.826 287.97 665.552 288.672C664.291 289.359 662.565 289.717 660.374 289.746L658.29 291.701ZM657.989 305H648.407L650.985 299.199H657.989C659.02 299.199 659.844 299.042 660.46 298.727C661.09 298.397 661.541 297.967 661.813 297.438C662.1 296.893 662.243 296.292 662.243 295.633C662.243 294.831 662.107 294.136 661.835 293.549C661.577 292.962 661.162 292.51 660.589 292.195C660.016 291.866 659.25 291.701 658.29 291.701H651.952L651.995 286.76H659.579L661.341 288.736C663.432 288.65 665.086 288.944 666.304 289.617C667.535 290.29 668.416 291.178 668.946 292.281C669.476 293.384 669.741 294.537 669.741 295.74C669.741 297.788 669.297 299.5 668.409 300.875C667.535 302.25 666.225 303.281 664.477 303.969C662.73 304.656 660.567 305 657.989 305ZM689.826 280.293L682.199 305H674.1L685.594 273.719H690.729L689.826 280.293ZM696.143 305L688.494 280.293L687.506 273.719H692.705L704.264 305H696.143ZM695.842 293.334V299.156H679.793V293.334H695.842ZM709.031 273.719H716.593V299.199H724.371V273.719H731.912V299.199H739.582V273.719H747.101V305H709.031V273.719ZM775.909 299.199V305H759.237V299.199H775.909ZM761.923 273.719V305H754.382V273.719H761.923ZM773.761 286.137V291.744H759.237V286.137H773.761ZM775.974 273.719V279.541H759.237V273.719H775.974ZM802.719 273.719V279.541H789.119V305H781.6V273.719H802.719ZM833.826 288.736V290.004C833.826 292.396 833.489 294.544 832.816 296.449C832.157 298.34 831.219 299.958 830.002 301.305C828.784 302.637 827.345 303.661 825.683 304.377C824.022 305.079 822.188 305.43 820.183 305.43C818.164 305.43 816.316 305.079 814.64 304.377C812.979 303.661 811.532 302.637 810.3 301.305C809.083 299.958 808.138 298.34 807.465 296.449C806.806 294.544 806.476 292.396 806.476 290.004V288.736C806.476 286.344 806.806 284.196 807.465 282.291C808.138 280.386 809.076 278.768 810.279 277.436C811.496 276.089 812.936 275.065 814.597 274.363C816.273 273.647 818.121 273.289 820.14 273.289C822.146 273.289 823.979 273.647 825.64 274.363C827.316 275.065 828.763 276.089 829.98 277.436C831.198 278.768 832.143 280.386 832.816 282.291C833.489 284.196 833.826 286.344 833.826 288.736ZM826.177 290.004V288.693C826.177 287.146 826.041 285.786 825.769 284.611C825.511 283.423 825.125 282.427 824.609 281.625C824.093 280.823 823.456 280.221 822.697 279.82C821.952 279.405 821.1 279.197 820.14 279.197C819.138 279.197 818.264 279.405 817.519 279.82C816.774 280.221 816.151 280.823 815.65 281.625C815.149 282.427 814.769 283.423 814.511 284.611C814.268 285.786 814.146 287.146 814.146 288.693V290.004C814.146 291.536 814.268 292.897 814.511 294.086C814.769 295.26 815.149 296.256 815.65 297.072C816.166 297.889 816.796 298.505 817.541 298.92C818.3 299.335 819.181 299.543 820.183 299.543C821.143 299.543 821.995 299.335 822.74 298.92C823.485 298.505 824.108 297.889 824.609 297.072C825.125 296.256 825.511 295.26 825.769 294.086C826.041 292.897 826.177 291.536 826.177 290.004ZM875.092 273.719V279.541H861.493V305H853.973V273.719H875.092ZM858.7 284.482H865.424C867.959 284.482 870.165 284.905 872.041 285.75C873.918 286.595 875.364 287.777 876.381 289.295C877.413 290.813 877.928 292.589 877.928 294.623C877.928 296.156 877.635 297.559 877.047 298.834C876.46 300.094 875.615 301.19 874.512 302.121C873.424 303.038 872.113 303.747 870.58 304.248C869.048 304.749 867.329 305 865.424 305H853.995V273.719H861.557V299.199H865.424C866.498 299.199 867.401 298.992 868.131 298.576C868.876 298.161 869.442 297.609 869.829 296.922C870.215 296.22 870.409 295.439 870.409 294.58C870.409 293.749 870.215 293.012 869.829 292.367C869.442 291.723 868.876 291.214 868.131 290.842C867.401 290.469 866.498 290.283 865.424 290.283H858.7V284.482ZM891.224 293.463L902.461 273.719H910.002V305H902.461V285.277L891.224 305H883.683V273.719H891.224V293.463ZM929.958 290.025H924.566V286.244H928.562C929.493 286.244 930.245 286.094 930.818 285.793C931.39 285.478 931.813 285.034 932.085 284.461C932.357 283.874 932.493 283.186 932.493 282.398C932.493 281.811 932.336 281.267 932.021 280.766C931.72 280.264 931.254 279.863 930.624 279.562C929.994 279.262 929.192 279.111 928.218 279.111C927.473 279.111 926.793 279.233 926.177 279.477C925.561 279.72 925.074 280.078 924.716 280.551C924.358 281.009 924.179 281.582 924.179 282.27H916.659C916.659 280.866 916.967 279.613 917.583 278.51C918.199 277.407 919.037 276.469 920.097 275.695C921.171 274.922 922.403 274.335 923.792 273.934C925.196 273.518 926.671 273.311 928.218 273.311C930.008 273.311 931.627 273.504 933.073 273.891C934.52 274.263 935.759 274.822 936.79 275.566C937.836 276.311 938.638 277.242 939.196 278.359C939.755 279.462 940.034 280.744 940.034 282.205C940.034 283.279 939.791 284.289 939.304 285.234C938.831 286.18 938.151 287.01 937.263 287.727C936.375 288.443 935.308 289.008 934.062 289.424C932.83 289.825 931.462 290.025 929.958 290.025ZM924.566 288.113H929.958C931.634 288.113 933.123 288.292 934.427 288.65C935.73 289.008 936.833 289.531 937.735 290.219C938.652 290.906 939.347 291.758 939.819 292.775C940.292 293.778 940.528 294.931 940.528 296.234C940.528 297.695 940.22 298.999 939.605 300.145C939.003 301.276 938.151 302.236 937.048 303.023C935.945 303.811 934.642 304.406 933.138 304.807C931.648 305.208 930.008 305.408 928.218 305.408C926.771 305.408 925.332 305.236 923.9 304.893C922.482 304.535 921.193 303.99 920.032 303.26C918.872 302.529 917.941 301.591 917.239 300.445C916.552 299.299 916.208 297.924 916.208 296.32H923.771C923.771 296.951 923.957 297.516 924.329 298.018C924.716 298.519 925.246 298.913 925.919 299.199C926.592 299.486 927.359 299.629 928.218 299.629C929.22 299.629 930.073 299.471 930.775 299.156C931.491 298.841 932.035 298.411 932.407 297.867C932.78 297.323 932.966 296.721 932.966 296.062C932.966 295.289 932.873 294.637 932.687 294.107C932.5 293.563 932.221 293.126 931.849 292.797C931.476 292.453 931.011 292.21 930.452 292.066C929.908 291.909 929.278 291.83 928.562 291.83H924.566V288.113ZM968.692 286.137V291.938H952.643V286.137H968.692ZM955.157 273.719V305H947.616V273.719H955.157ZM973.762 273.719V305H966.243V273.719H973.762ZM1002.72 299.199V305H986.049V299.199H1002.72ZM988.734 273.719V305H981.193V273.719H988.734ZM1000.57 286.137V291.744H986.049V286.137H1000.57ZM1002.79 273.719V279.541H986.049V273.719H1002.79ZM1026.24 294.408H1033.76C1033.66 296.585 1033.08 298.505 1032 300.166C1030.93 301.827 1029.44 303.124 1027.53 304.055C1025.64 304.971 1023.41 305.43 1020.83 305.43C1018.74 305.43 1016.87 305.079 1015.22 304.377C1013.59 303.675 1012.2 302.665 1011.05 301.348C1009.92 300.03 1009.06 298.433 1008.45 296.557C1007.87 294.68 1007.57 292.568 1007.57 290.219V288.521C1007.57 286.173 1007.88 284.06 1008.5 282.184C1009.13 280.293 1010.02 278.689 1011.16 277.371C1012.32 276.039 1013.71 275.022 1015.33 274.32C1016.95 273.618 1018.75 273.268 1020.72 273.268C1023.44 273.268 1025.74 273.755 1027.62 274.729C1029.49 275.702 1030.95 277.042 1031.98 278.746C1033.01 280.436 1033.62 282.363 1033.81 284.525H1026.29C1026.26 283.351 1026.06 282.37 1025.68 281.582C1025.31 280.78 1024.73 280.178 1023.92 279.777C1023.12 279.376 1022.05 279.176 1020.72 279.176C1019.79 279.176 1018.98 279.348 1018.29 279.691C1017.61 280.035 1017.03 280.579 1016.58 281.324C1016.12 282.069 1015.77 283.036 1015.54 284.225C1015.33 285.399 1015.22 286.817 1015.22 288.479V290.219C1015.22 291.88 1015.32 293.298 1015.52 294.473C1015.72 295.647 1016.05 296.607 1016.49 297.352C1016.93 298.096 1017.51 298.648 1018.21 299.006C1018.92 299.35 1019.8 299.521 1020.83 299.521C1021.98 299.521 1022.94 299.342 1023.73 298.984C1024.52 298.612 1025.13 298.053 1025.56 297.309C1025.99 296.549 1026.21 295.583 1026.24 294.408ZM1053.23 280.293L1045.6 305H1037.5L1048.99 273.719H1054.13L1053.23 280.293ZM1059.54 305L1051.89 280.293L1050.9 273.719H1056.1L1067.66 305H1059.54ZM1059.24 293.334V299.156H1043.19V293.334H1059.24Z" fill="white"/>
<g filter="url(#filter0_d_1_20)">
<rect x="700" y="350" width="200" height="50" rx="4" fill="#2196F3"/>
</g>
<path d="M738.944 371.758C738.944 371.326 738.775 370.987 738.436 370.742C738.098 370.492 737.65 370.367 737.092 370.367C736.592 370.367 736.176 370.492 735.842 370.742C735.514 370.987 735.35 371.307 735.35 371.703H733.007C733.007 371.089 733.178 370.536 733.522 370.047C733.871 369.552 734.363 369.167 734.999 368.891C735.639 368.615 736.337 368.477 737.092 368.477C738.405 368.477 739.434 368.758 740.178 369.32C740.923 369.883 741.296 370.68 741.296 371.711C741.296 372.216 741.142 372.685 740.835 373.117C740.533 373.549 740.1 373.896 739.538 374.156C740.163 374.375 740.642 374.708 740.975 375.156C741.309 375.599 741.475 376.151 741.475 376.812C741.475 377.833 741.074 378.646 740.272 379.25C739.475 379.849 738.415 380.148 737.092 380.148C736.264 380.148 735.52 380.008 734.858 379.727C734.197 379.44 733.694 379.052 733.35 378.562C733.012 378.068 732.842 377.495 732.842 376.844H735.202C735.202 377.25 735.379 377.591 735.733 377.867C736.087 378.138 736.54 378.273 737.092 378.273C737.717 378.273 738.21 378.133 738.569 377.852C738.934 377.57 739.116 377.214 739.116 376.781C739.116 376.188 738.954 375.763 738.632 375.508C738.309 375.247 737.837 375.117 737.217 375.117H735.819V373.281H737.264C738.384 373.266 738.944 372.758 738.944 371.758ZM748.92 380C748.816 379.797 748.74 379.544 748.693 379.242C748.146 379.852 747.435 380.156 746.56 380.156C745.732 380.156 745.045 379.917 744.498 379.438C743.956 378.958 743.685 378.354 743.685 377.625C743.685 376.729 744.016 376.042 744.677 375.562C745.344 375.083 746.305 374.841 747.56 374.836H748.599V374.352C748.599 373.961 748.498 373.648 748.295 373.414C748.097 373.18 747.782 373.062 747.349 373.062C746.969 373.062 746.67 373.154 746.451 373.336C746.237 373.518 746.131 373.768 746.131 374.086H743.873C743.873 373.596 744.024 373.143 744.326 372.727C744.628 372.31 745.055 371.984 745.607 371.75C746.159 371.51 746.779 371.391 747.467 371.391C748.508 371.391 749.334 371.654 749.943 372.18C750.558 372.701 750.865 373.435 750.865 374.383V378.047C750.87 378.849 750.982 379.456 751.201 379.867V380H748.92ZM747.052 378.43C747.386 378.43 747.693 378.357 747.974 378.211C748.256 378.06 748.464 377.859 748.599 377.609V376.156H747.756C746.625 376.156 746.024 376.547 745.951 377.328L745.943 377.461C745.943 377.742 746.042 377.974 746.24 378.156C746.438 378.339 746.709 378.43 747.052 378.43ZM756.872 376.883H755.966V380H753.708V371.547H755.966V374.727H756.77L758.614 371.547H761.466L758.7 375.57L761.723 380H758.716L756.872 376.883ZM768.433 380C768.329 379.797 768.254 379.544 768.207 379.242C767.66 379.852 766.949 380.156 766.074 380.156C765.246 380.156 764.558 379.917 764.012 379.438C763.47 378.958 763.199 378.354 763.199 377.625C763.199 376.729 763.53 376.042 764.191 375.562C764.858 375.083 765.819 374.841 767.074 374.836H768.113V374.352C768.113 373.961 768.012 373.648 767.808 373.414C767.611 373.18 767.295 373.062 766.863 373.062C766.483 373.062 766.183 373.154 765.965 373.336C765.751 373.518 765.644 373.768 765.644 374.086H763.387C763.387 373.596 763.538 373.143 763.84 372.727C764.142 372.31 764.569 371.984 765.121 371.75C765.673 371.51 766.293 371.391 766.98 371.391C768.022 371.391 768.847 371.654 769.457 372.18C770.071 372.701 770.379 373.435 770.379 374.383V378.047C770.384 378.849 770.496 379.456 770.715 379.867V380H768.433ZM766.566 378.43C766.9 378.43 767.207 378.357 767.488 378.211C767.769 378.06 767.978 377.859 768.113 377.609V376.156H767.269C766.139 376.156 765.538 376.547 765.465 377.328L765.457 377.461C765.457 377.742 765.556 377.974 765.754 378.156C765.952 378.339 766.222 378.43 766.566 378.43ZM777.511 374.039C777.511 373.742 777.412 373.513 777.214 373.352C777.021 373.185 776.745 373.102 776.386 373.102C776.016 373.102 775.714 373.18 775.479 373.336C775.25 373.487 775.136 373.703 775.136 373.984H772.878C772.878 373.219 773.196 372.596 773.831 372.117C774.466 371.638 775.279 371.398 776.268 371.398C777.357 371.398 778.211 371.612 778.831 372.039C779.456 372.466 779.768 373.073 779.768 373.859C779.768 374.234 779.654 374.581 779.425 374.898C779.201 375.211 778.883 375.461 778.472 375.648C779.435 375.987 779.917 376.641 779.917 377.609C779.917 378.385 779.584 379.005 778.917 379.469C778.255 379.927 777.373 380.156 776.268 380.156C775.242 380.156 774.399 379.917 773.737 379.438C773.076 378.958 772.745 378.312 772.745 377.5H775.003C775.003 377.786 775.13 378.018 775.386 378.195C775.641 378.372 775.974 378.461 776.386 378.461C776.787 378.461 777.099 378.367 777.323 378.18C777.547 377.992 777.659 377.747 777.659 377.445C777.659 377.076 777.552 376.812 777.339 376.656C777.125 376.495 776.805 376.414 776.378 376.414H775.151V374.945H776.456C777.159 374.924 777.511 374.622 777.511 374.039ZM787.15 380C787.046 379.797 786.971 379.544 786.924 379.242C786.377 379.852 785.666 380.156 784.791 380.156C783.963 380.156 783.275 379.917 782.728 379.438C782.187 378.958 781.916 378.354 781.916 377.625C781.916 376.729 782.247 376.042 782.908 375.562C783.575 375.083 784.536 374.841 785.791 374.836H786.83V374.352C786.83 373.961 786.728 373.648 786.525 373.414C786.327 373.18 786.012 373.062 785.58 373.062C785.2 373.062 784.9 373.154 784.682 373.336C784.468 373.518 784.361 373.768 784.361 374.086H782.103C782.103 373.596 782.254 373.143 782.557 372.727C782.859 372.31 783.286 371.984 783.838 371.75C784.39 371.51 785.01 371.391 785.697 371.391C786.739 371.391 787.564 371.654 788.174 372.18C788.788 372.701 789.096 373.435 789.096 374.383V378.047C789.101 378.849 789.213 379.456 789.432 379.867V380H787.15ZM785.283 378.43C785.616 378.43 785.924 378.357 786.205 378.211C786.486 378.06 786.695 377.859 786.83 377.609V376.156H785.986C784.856 376.156 784.254 376.547 784.182 377.328L784.174 377.461C784.174 377.742 784.273 377.974 784.471 378.156C784.669 378.339 784.939 378.43 785.283 378.43ZM798.681 373.359H795.97V380H793.704V373.359H791.04V371.547H798.681V373.359ZM803.195 374.023H804.812C805.542 374.023 806.182 374.146 806.734 374.391C807.286 374.635 807.708 374.987 808 375.445C808.297 375.898 808.445 376.427 808.445 377.031C808.445 377.922 808.115 378.641 807.453 379.188C806.797 379.729 805.901 380 804.766 380H800.93V371.547H803.195V374.023ZM803.195 375.836V378.195H804.797C805.245 378.195 805.589 378.091 805.828 377.883C806.068 377.674 806.188 377.391 806.188 377.031C806.188 376.667 806.07 376.378 805.836 376.164C805.602 375.945 805.255 375.836 804.797 375.836H803.195ZM818.779 376.805L820.342 371.547H822.764L819.365 381.312L819.178 381.758C818.673 382.862 817.839 383.414 816.678 383.414C816.35 383.414 816.016 383.365 815.678 383.266V381.555L816.022 381.562C816.449 381.562 816.766 381.497 816.975 381.367C817.188 381.237 817.355 381.021 817.475 380.719L817.74 380.023L814.779 371.547H817.209L818.779 376.805ZM828.021 378.336C828.437 378.336 828.776 378.221 829.036 377.992C829.297 377.763 829.432 377.458 829.442 377.078H831.56C831.554 377.651 831.398 378.177 831.091 378.656C830.784 379.13 830.362 379.5 829.825 379.766C829.294 380.026 828.706 380.156 828.06 380.156C826.851 380.156 825.898 379.773 825.2 379.008C824.502 378.237 824.153 377.174 824.153 375.82V375.672C824.153 374.37 824.5 373.331 825.192 372.555C825.885 371.779 826.836 371.391 828.044 371.391C829.101 371.391 829.948 371.693 830.583 372.297C831.224 372.896 831.549 373.695 831.56 374.695H829.442C829.432 374.258 829.297 373.904 829.036 373.633C828.776 373.357 828.432 373.219 828.005 373.219C827.479 373.219 827.081 373.411 826.81 373.797C826.544 374.177 826.411 374.797 826.411 375.656V375.891C826.411 376.76 826.544 377.385 826.81 377.766C827.075 378.146 827.479 378.336 828.021 378.336ZM841.16 371.547V380H838.902V373.375H836.91L836.77 375.984C836.681 377.375 836.408 378.388 835.949 379.023C835.491 379.659 834.809 379.984 833.902 380H833.137L833.113 378.164L833.395 378.141C833.801 378.109 834.098 377.87 834.285 377.422C834.473 376.974 834.59 376.211 834.637 375.133L834.793 371.547H841.16ZM847.019 376.805L848.581 371.547H851.003L847.605 381.312L847.417 381.758C846.912 382.862 846.079 383.414 844.917 383.414C844.589 383.414 844.256 383.365 843.917 383.266V381.555L844.261 381.562C844.688 381.562 845.006 381.497 845.214 381.367C845.428 381.237 845.594 381.021 845.714 380.719L845.98 380.023L843.019 371.547H845.448L847.019 376.805ZM858.612 373.375H855.112V380H852.854V371.547H858.612V373.375ZM863.673 376.805L865.236 371.547H867.658L864.259 381.312L864.072 381.758C863.566 382.862 862.733 383.414 861.572 383.414C861.243 383.414 860.91 383.365 860.572 383.266V381.555L860.915 381.562C861.342 381.562 861.66 381.497 861.868 381.367C862.082 381.237 862.249 381.021 862.368 380.719L862.634 380.023L859.673 371.547H862.103L863.673 376.805Z" fill="white"/>
<defs>
<filter id="filter0_d_1_20" x="696" y="350" width="208" height="58" filterUnits="userSpaceOnUse" color-interpolation-filters="sRGB">
<feFlood flood-opacity="0" result="BackgroundImageFix"/>
<feColorMatrix in="SourceAlpha" type="matrix" values="0 0 0 0 0 0 0 0 0 0 0 0 0 0 0 0 0 0 127 0" result="hardAlpha"/>
<feOffset dy="4"/>
<feGaussianBlur stdDeviation="2"/>
<feColorMatrix type="matrix" values="0 0 0 0 0 0 0 0 0 0 0 0 0 0 0 0 0 0 0.15 0"/>
<feBlend mode="normal" in2="BackgroundImageFix" result="effect1_dropShadow_1_20"/>
<feBlend mode="normal" in="SourceGraphic" in2="effect1_dropShadow_1_20" result="shape"/>
</filter>
</defs>
</svg>
